<svg xmlns="http://www.w3.org/2000/svg" xmlns:xlink="http://www.w3.org/1999/xlink" zoomAndPan="magnify" preserveAspectRatio="xMidYMid meet" version="1.2" viewBox="329.04 340.16 781.89 759.7"><defs><clipPath id="3b984e92d4"><path d="M 329.039062 340.132812 L 1111 340.132812 L 1111 1099.882812 L 329.039062 1099.882812 Z M 329.039062 340.132812 "/></clipPath></defs><g id="9e909a1f0e"><g clip-rule="nonzero" clip-path="url(#3b984e92d4)"><path style=" stroke:none;fill-rule:evenodd;fill:#f6f3f1;fill-opacity:1;" d="M 723.1875 911.320312 L 460.707031 720.007812 L 723.1875 528.695312 L 786.246094 482.8125 L 840.34375 443.332031 L 885.796875 492.414062 L 938.933594 549.714844 L 1002.847656 618.640625 L 955.257812 665.164062 L 884.835938 589.085938 L 831.808594 531.894531 L 768.640625 577.777344 L 573.488281 720.007812 L 768.640625 862.238281 L 831.808594 908.226562 L 884.835938 850.925781 L 934.667969 797.152344 L 881.636719 740.386719 L 821.777344 804.941406 L 705.15625 720.007812 L 821.777344 635.074219 L 1002.847656 821.371094 L 938.933594 890.300781 L 885.796875 947.597656 L 840.34375 996.679688 L 786.246094 957.308594 Z M 329.039062 720.007812 L 670.15625 968.511719 L 733.21875 1014.5 L 787.3125 1053.871094 L 850.375 1099.859375 L 903.402344 1042.667969 L 948.964844 993.585938 L 1001.996094 936.289062 L 1058.226562 875.574219 L 1110.933594 818.703125 L 1055.558594 764.5 L 1009.996094 720.007812 L 1055.558594 675.511719 L 1110.933594 621.308594 L 1058.226562 564.4375 L 1001.996094 503.726562 L 948.964844 446.535156 L 903.402344 397.453125 L 850.375 340.15625 L 787.3125 386.140625 L 733.21875 425.515625 L 670.15625 471.503906 Z M 329.039062 720.007812 "/></g></g></svg>